<svg width="555" height="555" viewBox="0 0 555 555" fill="none" xmlns="http://www.w3.org/2000/svg"><g clip-path="url(#clip0)"><path opacity=".5" d="M555 320.5l-.3 170.9H.9L0 320.5h555z" fill="url(#paint0_radial)"/><path opacity=".1" d="M302.025 433.794c116.503 0 210.947-94.444 210.947-210.947S418.528 11.9 302.025 11.9 91.078 106.344 91.078 222.847s94.444 210.947 210.947 210.947z" fill="url(#paint1_linear)"/><path d="M302.022 413.298c105.183 0 190.451-85.268 190.451-190.451 0-105.183-85.268-190.451-190.451-190.451-105.183 0-190.451 85.268-190.451 190.451 0 105.183 85.268 190.451 190.451 190.451z" fill="url(#paint2_linear)"/><path d="M211.863 169.65c-2.303-4.03-12.551-7.485-12.551-7.485s1.152-9.787-3.454-9.787-20.036 3.454-16.121-2.303c4.03-5.757 7.485-2.303 9.788-10.824s8.521-3.915 1.727-10.593c-6.794-6.564-8.06-7.83-13.818-14.048-5.757-6.333-6.793-18.884-16.581-18.884 0 0-.345.115-1.151.46-29.938 33.738-48.131 77.954-48.131 126.546 0 12.781 1.267 25.217 3.685 37.307 3.109.806 10.017 2.188 12.32-.345 2.764-3.455-2.763-13.127.576-13.127s6.333 3.109 12.551 4.03c6.333 1.152 18.308-5.872 20.035-11.63 1.727-5.757-4.606-7.484 8.061-9.211 12.55-1.727 16.581 2.763 22.338-3.455 5.757-6.333 4.606-20.611 12.551-24.641 8.06-4.03 21.186-10.824 21.186-16.581s-10.708-11.399-13.011-15.429z" fill="url(#paint3_linear)"/><path d="M221.654 52.2c.921-.46 2.303-1.957 3.684-3.684-19.459 8.52-37.077 20.266-52.506 34.544 2.648.921 10.478.115 16.696.115 9.212 0 17.157 2.764 21.187 12.55 4.03 9.788 14.278 1.728 14.278 1.728s.576-15.43 4.606-16.58c4.03-1.152 16.581 11.514 19.574 14.853 2.764 3.454 10.364.576 12.091 0 1.727-.576 4.03-14.854 6.333-20.035 2.303-5.182-6.794-1.728-9.788-4.606-2.763-2.764 6.333-8.521 5.758-13.127-.576-4.606-2.303-3.454-8.061-2.303-5.757 1.152-10.823 2.764-20.611 2.303-9.787-.576-5.181 1.151-15.544 4.03-10.248 2.764 0-8.75 2.303-9.787z" fill="url(#paint4_linear)"/><path d="M435.593 87.205c-3.685 1.151-7.024 2.764-10.478-.576-5.182-5.181-12.551-9.787-6.794-9.211 1.842.23 4.491.46 7.254.46-10.823-9.327-22.683-17.387-35.35-23.95-3.108-.46-6.448-.345-10.247 1.151-10.824 4.03-30.399 15.084-30.399 16.927 0 1.842.576 10.478 5.757 12.205 5.182 1.727 1.728 10.824 10.363 8.521 8.521-2.303 14.279-3.454 14.279-8.06s-7.485-9.557 1.151-12.781c8.521-3.34 19.575-.346 16.581 3.109-2.764 3.454-16.12 6.793-9.212 11.514 6.794 4.606 19.575 6.333 18.308 9.212-1.151 2.763-5.757-1.843-17.847 4.721-12.09 6.563-29.823 6.678-32.702 3.8-2.763-2.764 1.152-11.515-5.181-8.521-6.333 2.763-6.333 8.06-14.854 9.211-8.521 1.152-21.762-2.302-20.611 2.303 1.152 4.606 0 16.581-2.763 16.581-2.764 0-16.581-5.181-21.763-1.151-5.182 4.03-16.005 17.157.576 17.157s21.187-1.728 31.55-6.794c10.363-5.182 19.574-8.521 21.186-4.606 1.728 4.03 5.182 10.363 7.485 16.581 2.303 6.333 7.369 13.127 8.981 8.521 1.843-4.606-6.793-14.854-3.915-20.611 2.764-5.757 8.521 0 9.788 4.03 1.151 4.03-4.03 18.308 4.606 19.575 8.52 1.151 6.793-4.606 13.126-2.764 6.333 1.727 10.824 3.455 13.818-4.03 2.763-7.484 10.823-10.824 15.544-9.787 4.606 1.151 9.212 2.303 9.788 11.514.575 9.212-3.455 16.581-8.521 14.854-5.182-1.727-24.641-9.787-27.52-4.606-2.763 5.182-9.212 4.03-1.151 10.824 8.06 6.794 15.544 6.333 20.035 8.521 4.606 2.303 2.303 5.181-2.303 9.787-4.606 4.606-7.484 9.212-16.12 2.764-8.521-6.333-8.521-18.539-20.036-15.315-11.514 3.224-16.12 10.709-20.035 7.255-4.03-3.455-11.515-8.061-12.09-14.279-.576-6.333 4.606-14.853-.576-17.156-5.182-2.303-12.551-1.152-24.641-.576-12.091.576-16.005-4.03-22.338-2.764-6.334 1.152-20.266 14.279-20.266 14.279s-10.133 5.181-15.315 6.793c-5.181 1.727-10.363 6.794-11.514 14.278-1.152 7.485-16.12 18.884-12.09 24.066 4.03 5.181 10.363 13.126 10.823 25.217.576 12.09 21.417 12.205 27.866 14.969 6.448 2.763 3.108 5.181 11.744 2.763 8.521-2.303 12.091-.345 14.278.921 2.303 1.382 0-12.205 5.758 6.909 5.757 19.114-6.794 11.054-3.455 22.568 3.34 11.515 12.091 15.545 11.515 20.036-.576 4.491 0 4.03-8.06 14.278-8.06 10.363-10.363 18.884-8.06 32.126 2.302 13.126-1.728 7.714-2.303 17.617-.576 9.902 6.333 14.969 4.03 23.029s7.484 8.06 14.278 9.787c6.793 1.728-1.152 6.333 10.824 3.455 11.975-2.879 14.278-8.521 18.883-11.515 4.606-2.763.576-8.521 5.182-12.09 4.606-3.454 9.212-.576 12.551-6.333 3.339-5.757-6.794-6.794 4.606-10.824 11.514-4.03 17.847-2.763 21.187-13.126 3.339-10.364-2.303-25.217 7.484-30.399 9.787-5.181 42.489-22.914 46.404-31.55 4.03-8.521-7.485-10.363-14.854-12.551-7.485-2.303-9.787-4.375-12.09-14.508-2.303-10.133-7.485-24.411-7.485-24.411s1.727-13.817 0-15.545c-1.727-1.727 1.152-18.884 5.182-14.853 4.03 4.03 5.181 7.484 5.757 15.544.576 8.06.576 15.545 2.764 18.308 2.302 2.764 3.454 6.449 4.03 10.364.575 3.914 5.181 10.593 5.181 10.593s4.03 6.909 17.157 2.879c13.127-3.915 25.793-12.551 25.217-17.042-.576-4.606-8.521-2.763-13.818-10.824-5.181-8.06-5.757-24.641-5.757-24.641s8.06-5.181 9.212 2.764c1.151 8.06 1.727 9.211 7.484 13.817s-5.757 4.606 8.521 8.06c11.284 2.649 16.696 7.024 19.575 8.867.806-7.37 1.381-14.739 1.381-22.339v-2.303c-1.381-16.35-4.03-37.883-8.751-55.154-9.326-29.593-25.907-56.422-47.785-77.839z" fill="url(#paint5_linear)"/><path d="M423.388 330.163s-18.884 2.303-23.605 12.09c-4.606 9.787-8.06 14.278-8.06 20.611s-11.515 11.515-4.606 14.278c6.794 2.764 20.611-4.606 25.793-15.545 5.412-10.708 16.235-25.217 10.478-31.434z" fill="url(#paint6_linear)"/><path d="M481.422 190.951c40.636 0 73.578-32.942 73.578-73.578s-32.942-73.578-73.578-73.578-73.578 32.942-73.578 73.578 32.942 73.578 73.578 73.578z" fill="#fff"/><path d="M481.422 58.534c-32.356 0-58.839 26.483-58.839 58.839 0 32.356 26.483 58.84 58.839 58.84 32.356 0 58.84-26.484 58.84-58.84s-26.484-58.84-58.84-58.84zm-9.672 88.201l-26.483-25.792 10.248-10.248 16.235 15.544 34.544-33.853 10.248 10.249-44.792 44.1z" fill="url(#paint7_linear)"/><path d="M453.097 342.714c56.28 0 101.904-45.624 101.904-101.904 0-56.28-45.624-101.904-101.904-101.904-56.28 0-101.904 45.624-101.904 101.904 0 56.28 45.624 101.904 101.904 101.904z" fill="url(#paint8_radial)"/><path d="M153.026 249.1c60.859 0 110.195-49.336 110.195-110.195 0-60.858-49.336-110.194-110.195-110.194-60.858 0-110.194 49.336-110.194 110.194 0 60.859 49.336 110.195 110.194 110.195z" fill="url(#paint9_radial)"/><path d="M143.827 342.071s-18.385 41.446-18.385 48.408c0 6.962 28.392 22.301 32.961 24.585 4.569 2.284 9.138-82.892 9.138-82.892l-23.714 9.899z" fill="url(#paint10_linear)"/><path d="M143.827 342.071s-18.385 41.446-18.385 48.408c0 6.962 28.392 22.301 32.961 24.585 4.569 2.284 9.138-82.892 9.138-82.892l-23.714 9.899z" fill="url(#paint11_linear)"/><path d="M137.408 351.644s7.941-25.563 26.543-32.852c44.601-17.84 40.141 32.526 40.141 32.526l-24.911 13.271-41.773-12.945z" fill="url(#paint12_linear)"/><path d="M137.408 351.644s7.941-25.563 26.543-32.852c44.601-17.84 40.141 32.526 40.141 32.526l-24.911 13.271-41.773-12.945z" fill="url(#paint13_linear)"/><path d="M253.586 345.009s16.861 42.207 16.643 49.06c-.217 6.853-29.262 21.212-33.94 23.279-4.677 2.176-5.983-83.218-5.983-83.218l23.28 10.879z" fill="url(#paint14_linear)"/><path d="M253.586 345.009s16.861 42.207 16.643 49.06c-.217 6.853-29.262 21.212-33.94 23.279-4.677 2.176-5.983-83.218-5.983-83.218l23.28 10.879z" fill="url(#paint15_linear)"/><path d="M259.786 356.213s-7.18-27.195-25.455-35.245c-43.839-19.472-41.337 31.003-41.337 31.003l24.476 14.25 42.316-10.008z" fill="url(#paint16_linear)"/><path d="M259.786 356.213s-7.18-27.195-25.455-35.245c-43.839-19.472-41.337 31.003-41.337 31.003l24.476 14.25 42.316-10.008z" fill="url(#paint17_linear)"/><path opacity=".4" d="M294.164 516.992c109.523 0 198.308-9.448 198.308-21.103 0-11.655-88.785-21.104-198.308-21.104s-198.31 9.449-198.31 21.104 88.787 21.103 198.31 21.103z" fill="url(#paint18_radial)"/><path opacity=".4" d="M190.757 543.1c105.353 0 190.758-9.449 190.758-21.104s-85.405-21.103-190.758-21.103c-105.353 0-190.758 9.448-190.758 21.103 0 11.655 85.405 21.104 190.758 21.104z" fill="url(#paint19_radial)"/><path d="M149.808 390.153s6.309-60.918 7.071-64.943c.87-4.025 18.166-11.096 34.918-11.096 16.753 0 39.488 1.85 47.538 11.314 8.05 9.464 3.59 76.473 3.59 76.473l-80.063-.979-13.054-10.769z" fill="url(#paint20_linear)"/><path d="M149.808 390.153s6.309-60.918 7.071-64.943c.87-4.025 18.166-11.096 34.918-11.096 16.753 0 39.488 1.85 47.538 11.314 8.05 9.464 3.59 76.473 3.59 76.473l-80.063-.979-13.054-10.769z" fill="url(#paint21_linear)"/><path d="M301.993 492.408c-3.481 2.393-7.723 4.133-11.531 5.33-21.647 6.744-45.362 8.485-68.206 7.18-20.233-1.088-16.535-4.46-54.608-4.46-25.455 0-41.881-33.505-49.496-57.111-3.481-10.769-5.656-16.208-3.481-28.174.87-4.678-14.685-7.724-10.334-9.682 5.33-2.393 11.096-11.857 16.535-9.681 30.785 12.509 44.274 40.358 76.147 50.692 17.731 5.765 35.789 6.418 54.173 7.723 14.25.979 30.024 2.067 43.513 7.071 12.183 4.895 20.016 22.627 7.288 31.112z" fill="url(#paint22_linear)"/><path d="M301.993 492.408c-3.481 2.393-7.723 4.133-11.531 5.33-21.647 6.744-45.362 8.485-68.206 7.18-20.233-1.088-16.535-4.46-54.608-4.46-25.455 0-41.881-33.505-49.496-57.111-3.481-10.769-5.656-16.208-3.481-28.174.87-4.678-14.685-7.724-10.334-9.682 5.33-2.393 11.096-11.857 16.535-9.681 30.785 12.509 44.274 40.358 76.147 50.692 17.731 5.765 35.789 6.418 54.173 7.723 14.25.979 30.024 2.067 43.513 7.071 12.183 4.895 20.016 22.627 7.288 31.112z" fill="url(#paint23_linear)"/><path d="M301.993 492.408c-3.481 2.393-7.723 4.133-11.531 5.33-21.647 6.744-45.362 8.485-68.206 7.18-20.233-1.088-16.535-4.46-54.608-4.46-25.455 0-41.881-33.505-49.496-57.111-3.481-10.769-5.656-16.208-3.481-28.174.87-4.678-14.685-7.724-10.334-9.682 5.33-2.393 11.096-11.857 16.535-9.681 30.785 12.509 44.274 40.358 76.147 50.692 17.731 5.765 35.789 6.418 54.173 7.723 14.25.979 30.024 2.067 43.513 7.071 12.183 4.895 20.016 22.627 7.288 31.112z" fill="url(#paint24_linear)"/><path d="M301.993 492.408c-3.481 2.393-7.723 4.133-11.531 5.33-21.647 6.744-45.362 8.485-68.206 7.18-20.233-1.088-16.535-4.46-54.608-4.46-25.455 0-41.881-33.505-49.496-57.111-3.481-10.769-5.656-16.208-3.481-28.174.87-4.678-14.685-7.724-10.334-9.682 5.33-2.393 11.096-11.857 16.535-9.681 30.785 12.509 44.274 40.358 76.147 50.692 17.731 5.765 35.789 6.418 54.173 7.723 14.25.979 30.024 2.067 43.513 7.071 12.183 4.895 20.016 22.627 7.288 31.112z" fill="url(#paint25_linear)"/><path d="M197.345 494.692l-29.588 5.548 4.133 16.535 30.024-4.243-4.569-17.84z" fill="url(#paint26_linear)"/><path d="M182.771 495.671l-3.154.762-24.585 3.807-1.414.218c-1.306.108-1.306 1.523-1.414 2.61l-.871 5.113 7.397 30.133c.327 1.523 1.85 2.61 3.046 2.284.653-.109 1.197-.653 1.415-1.305l21.538-22.409 3.59-.979c.326-.109.653-.653.435-1.197l-4.46-18.058c-.217-.761-.979-1.196-1.523-.979z" fill="url(#paint27_linear)"/><path d="M172.869 529.284l-3.699-15.229c-1.305-5.439-6.744-8.703-12.183-7.397l-5.875 1.414 8.485 34.701 5.875-1.414c5.439-1.197 8.702-6.636 7.397-12.075z" fill="url(#paint28_linear)"/><path d="M198.653 515.904c5.113-.217 66.575-5.33 90.18-13.597 5.439-1.959 11.314-5.331 14.686-10.117 8.811-12.619-3.264-27.304-17.297-25.346-23.496 3.372-88.004 25.781-91.376 26.651l3.807 22.409z" fill="url(#paint29_linear)"/><path d="M138.822 476.417l3.59 34.919H125.55l-3.154-30.133 16.426-4.786z" fill="url(#paint30_linear)"/><path d="M143.392 495.671v3.264l2.067 24.693.109 1.414c.109 1.306-1.197 1.741-2.176 2.067l-7.07 2.067h-28.719c-1.74 0-3.046-1.088-3.046-2.393 0-.653.327-1.306.979-1.741l16.644-26.216.109-3.699c0-.435.435-.761.979-.761h18.601c.871.109 1.523.761 1.523 1.305z" fill="url(#paint31_linear)"/><path d="M110.539 514.925h15.556a9.982 9.982 0 0110.008 10.008v4.351h-35.68v-4.351c0-5.439 4.677-10.008 10.116-10.008z" fill="url(#paint32_linear)"/><path d="M251.954 459.991l-108.129 1.414v-4.786l108.02-1.414.109 4.786z" fill="url(#paint33_linear)"/><path d="M251.955 455.204l-108.129 1.414-8.811-79.084c-.109-1.414.979-2.611 2.393-2.611l118.899-1.523c1.414 0 2.502 1.197 2.393 2.611l-6.745 79.193z" fill="url(#paint34_linear)"/><path d="M120.871 489.579c-1.958-4.568-21.539-45.144-23.932-70.055-.653-5.765 0-12.51 3.046-17.623 7.723-13.38 26.107-8.702 30.241 4.896 6.962 22.626 10.225 74.406 10.878 77.887l-20.233 4.895z" fill="url(#paint35_linear)"/><path fill-rule="evenodd" clip-rule="evenodd" d="M186.902 423.658c-1.306-1.85-2.176-4.025-2.176-6.418-.109-5.983 4.678-10.987 10.769-11.096 5.983-.109 10.987 4.678 10.987 10.769 0 2.393-.761 4.569-2.067 6.418l-5.33-8.485-.435.871.435 2.393-3.59-6.092-2.175 3.699.652 2.393-1.958-3.264-5.112 8.812z" fill="#fff"/><path d="M205.831 297.906s-.326 13.598 4.787 19.798c0 0-6.092 8.268-19.037 5.548-5.657-1.196-10.443-4.351-10.443-4.351s4.242-11.422 3.263-23.171c-.979-10.116 21.43 2.176 21.43 2.176z" fill="url(#paint36_linear)"/><path d="M219.211 274.192s1.088-17.949 2.284-23.171c1.197-5.33.653-11.64-2.284-12.836l-2.937-1.197s0-14.685-24.585-7.614c-24.585 6.962-30.459-6.527-30.459-6.527s-8.158 15.773-2.284 25.781 51.453.653 51.453.653l-9.246 7.614 3.481 21.648 14.577-4.351z" fill="url(#paint37_linear)"/><path d="M214.533 286.701c2.611-.979 6.636-1.305 6.962-4.242l1.523-12.075c.435-3.59-1.523-1.305-8.268-1.414l-.217-.109v17.84z" fill="url(#paint38_linear)"/><path d="M217.254 268.535l-1.305 23.714a8.519 8.519 0 01-3.808 6.745l-16.643 9.138c-4.025 2.61-9.029 2.719-13.163.108l-8.702-7.723c-3.699-2.393-6.092-6.527-6.31-10.987l-1.087-33.287 9.355-4.46h26.869l13.598 5.33 1.196 11.422z" fill="url(#paint39_linear)"/><path d="M161.233 222.847s-18.82 40.466 18.166 37.421c36.877-2.938 33.94-2.285 33.94-2.285l1.849 23.932h2.285v-35.136l-29.915-8.159-14.686 8.159-10.66-6.962-.979-16.97z" fill="url(#paint40_linear)"/><path d="M110.02 250.695c60.078 0 108.781-48.703 108.781-108.782 0-60.078-48.703-108.781-108.781-108.781-60.079 0-108.782 48.703-108.782 108.781 0 60.079 48.703 108.782 108.782 108.782z" fill="url(#paint41_radial)"/></g><defs><linearGradient id="paint26_linear" x1="208.621" y1="501.778" x2="153.929" y2="512.37" gradientUnits="userSpaceOnUse"><stop stop-color="#F6CFBE"/><stop offset="1" stop-color="#FFE8E1"/></linearGradient><linearGradient id="paint23_linear" x1="202.081" y1="491.254" x2="206.526" y2="437.921" gradientUnits="userSpaceOnUse"><stop stop-color="#393944"/><stop offset="1" stop-color="#565378" stop-opacity="0"/></linearGradient><linearGradient id="paint3_linear" x1="123.457" y1="347.955" x2="163.772" y2="206.852" gradientUnits="userSpaceOnUse"><stop offset=".001" stop-color="#77A7FF"/><stop offset=".999" stop-color="#BDD4FF"/></linearGradient><linearGradient id="paint4_linear" x1="144.131" y1="345.803" x2="183.26" y2="208.851" gradientUnits="userSpaceOnUse"><stop offset=".001" stop-color="#77A7FF"/><stop offset=".999" stop-color="#BDD4FF"/></linearGradient><linearGradient id="paint5_linear" x1="309.597" y1="401.16" x2="349.902" y2="260.094" gradientUnits="userSpaceOnUse"><stop offset=".001" stop-color="#77A7FF"/><stop offset=".999" stop-color="#BDD4FF"/></linearGradient><linearGradient id="paint6_linear" x1="385.77" y1="422.922" x2="426.088" y2="281.808" gradientUnits="userSpaceOnUse"><stop offset=".001" stop-color="#77A7FF"/><stop offset=".999" stop-color="#BDD4FF"/></linearGradient><linearGradient id="paint7_linear" x1="481.382" y1="16.465" x2="481.382" y2="123.694" gradientUnits="userSpaceOnUse"><stop stop-color="#AEE9C0"/><stop offset=".279" stop-color="#ABE8BE"/><stop offset=".498" stop-color="#A1E5B6"/><stop offset=".697" stop-color="#90E1A9"/><stop offset=".882" stop-color="#79DA98"/><stop offset="1" stop-color="#66D589"/></linearGradient><linearGradient id="paint10_linear" x1="137.121" y1="367.278" x2="179.058" y2="377.655" gradientUnits="userSpaceOnUse"><stop stop-color="#FCEBD6"/><stop offset="1" stop-color="#FFAA6E"/></linearGradient><linearGradient id="paint11_linear" x1="151.879" y1="375.472" x2="142.563" y2="376.949" gradientUnits="userSpaceOnUse"><stop stop-color="#F6CFBE"/><stop offset="1" stop-color="#FFE8E1"/></linearGradient><linearGradient id="paint12_linear" x1="171.118" y1="398.543" x2="170.726" y2="335.14" gradientUnits="userSpaceOnUse"><stop stop-color="#43A5A1"/><stop offset="1" stop-color="#6ECBBF"/></linearGradient><linearGradient id="paint13_linear" x1="171.266" y1="380.973" x2="170.432" y2="322.64" gradientUnits="userSpaceOnUse"><stop stop-color="#F86E80"/><stop offset=".999" stop-color="#FFD4D8"/></linearGradient><linearGradient id="paint14_linear" x1="259.422" y1="370.231" x2="217.119" y2="378.999" gradientUnits="userSpaceOnUse"><stop stop-color="#FCEBD6"/><stop offset="1" stop-color="#FFAA6E"/></linearGradient><linearGradient id="paint15_linear" x1="243.543" y1="379.159" x2="257.633" y2="383.848" gradientUnits="userSpaceOnUse"><stop stop-color="#F6CFBE"/><stop offset="1" stop-color="#FFE8E1"/></linearGradient><linearGradient id="paint16_linear" x1="224.33" y1="400.358" x2="227.141" y2="337.015" gradientUnits="userSpaceOnUse"><stop stop-color="#43A5A1"/><stop offset="1" stop-color="#6ECBBF"/></linearGradient><linearGradient id="paint17_linear" x1="226.827" y1="380.179" x2="225.994" y2="321.847" gradientUnits="userSpaceOnUse"><stop stop-color="#F86E80"/><stop offset=".999" stop-color="#FFD4D8"/></linearGradient><linearGradient id="paint20_linear" x1="197.079" y1="376.377" x2="196.791" y2="329.685" gradientUnits="userSpaceOnUse"><stop stop-color="#43A5A1"/><stop offset="1" stop-color="#6ECBBF"/></linearGradient><linearGradient id="paint1_linear" x1="266.811" y1="420.906" x2="329.212" y2="70.275" gradientUnits="userSpaceOnUse"><stop offset=".001" stop-color="#77A7FF"/><stop offset=".999" stop-color="#BDD4FF"/></linearGradient><linearGradient id="paint22_linear" x1="195.462" y1="499.834" x2="208.055" y2="433.538" gradientUnits="userSpaceOnUse"><stop stop-color="#393944"/><stop offset="1" stop-color="#565378"/></linearGradient><linearGradient id="paint2_linear" x1="267.981" y1="390.378" x2="328.458" y2="93.029" gradientUnits="userSpaceOnUse"><stop offset=".001" stop-color="#BDD4FF"/><stop offset=".999" stop-color="#EDF3FF"/></linearGradient><linearGradient id="paint24_linear" x1="151.521" y1="489.457" x2="184.113" y2="463.902" gradientUnits="userSpaceOnUse"><stop stop-color="#393944"/><stop offset="1" stop-color="#565378" stop-opacity="0"/></linearGradient><linearGradient id="paint25_linear" x1="199.921" y1="487.944" x2="205.847" y2="445.352" gradientUnits="userSpaceOnUse"><stop stop-color="#233B67"/><stop offset=".325" stop-color="#39456E"/><stop offset=".732" stop-color="#4E4F75"/><stop offset=".998" stop-color="#565378"/></linearGradient><linearGradient id="paint21_linear" x1="197.148" y1="380.603" x2="196.314" y2="322.27" gradientUnits="userSpaceOnUse"><stop stop-color="#F86E80"/><stop offset=".999" stop-color="#FFD4D8"/></linearGradient><linearGradient id="paint27_linear" x1="163.848" y1="518.008" x2="191.422" y2="506.797" gradientUnits="userSpaceOnUse"><stop stop-color="#233B67"/><stop offset=".333" stop-color="#30416B"/><stop offset=".95" stop-color="#535277"/><stop offset=".998" stop-color="#565378"/></linearGradient><linearGradient id="paint28_linear" x1="177.086" y1="501.165" x2="153.717" y2="523.256" gradientUnits="userSpaceOnUse"><stop stop-color="#233B67"/><stop offset=".325" stop-color="#39456E"/><stop offset=".732" stop-color="#4E4F75"/><stop offset=".998" stop-color="#565378"/></linearGradient><linearGradient id="paint29_linear" x1="246.756" y1="509.576" x2="259.348" y2="443.28" gradientUnits="userSpaceOnUse"><stop stop-color="#233B67"/><stop offset=".325" stop-color="#39456E"/><stop offset=".732" stop-color="#4E4F75"/><stop offset=".998" stop-color="#565378"/></linearGradient><linearGradient id="paint30_linear" x1="131.137" y1="479.335" x2="133.01" y2="504.699" gradientUnits="userSpaceOnUse"><stop stop-color="#F6CFBE"/><stop offset="1" stop-color="#FFE8E1"/></linearGradient><linearGradient id="paint31_linear" x1="124.982" y1="523.235" x2="124.376" y2="497.782" gradientUnits="userSpaceOnUse"><stop stop-color="#233B67"/><stop offset=".482" stop-color="#39466E"/><stop offset=".998" stop-color="#565378"/></linearGradient><linearGradient id="paint32_linear" x1="118.711" y1="508.916" x2="118.283" y2="527.71" gradientUnits="userSpaceOnUse"><stop stop-color="#233B67"/><stop offset=".325" stop-color="#39456E"/><stop offset=".732" stop-color="#4E4F75"/><stop offset=".998" stop-color="#565378"/></linearGradient><linearGradient id="paint33_linear" x1="197.913" y1="459.542" x2="197.913" y2="456.84" gradientUnits="userSpaceOnUse"><stop stop-color="#BDD4FF"/><stop offset="1" stop-color="#EDF3FF"/></linearGradient><linearGradient id="paint34_linear" x1="200.046" y1="452.74" x2="196.435" y2="365.519" gradientUnits="userSpaceOnUse"><stop stop-color="#BDD4FF"/><stop offset="1" stop-color="#EDF3FF"/></linearGradient><linearGradient id="paint35_linear" x1="112.039" y1="483.988" x2="124.631" y2="417.693" gradientUnits="userSpaceOnUse"><stop stop-color="#233B67"/><stop offset=".325" stop-color="#39456E"/><stop offset=".732" stop-color="#4E4F75"/><stop offset=".998" stop-color="#565378"/></linearGradient><linearGradient id="paint36_linear" x1="190.943" y1="301.401" x2="196.128" y2="315.474" gradientUnits="userSpaceOnUse"><stop stop-color="#F6CFBE"/><stop offset="1" stop-color="#FFE8E1"/></linearGradient><linearGradient id="paint37_linear" x1="195.327" y1="258.525" x2="182.364" y2="224.451" gradientUnits="userSpaceOnUse"><stop stop-color="#233B67"/><stop offset=".325" stop-color="#39456E"/><stop offset=".732" stop-color="#4E4F75"/><stop offset=".998" stop-color="#565378"/></linearGradient><linearGradient id="paint38_linear" x1="226.107" y1="247.806" x2="212.403" y2="295.213" gradientUnits="userSpaceOnUse"><stop stop-color="#F6CFBE"/><stop offset="1" stop-color="#FFE8E1"/></linearGradient><linearGradient id="paint39_linear" x1="198.052" y1="249.785" x2="189.265" y2="281.601" gradientUnits="userSpaceOnUse"><stop stop-color="#F6CFBE"/><stop offset="1" stop-color="#FFE8E1"/></linearGradient><linearGradient id="paint40_linear" x1="191.777" y1="259.876" x2="178.814" y2="225.802" gradientUnits="userSpaceOnUse"><stop stop-color="#233B67"/><stop offset=".325" stop-color="#39456E"/><stop offset=".732" stop-color="#4E4F75"/><stop offset=".998" stop-color="#565378"/></linearGradient><radialGradient id="paint0_radial" cx="0" cy="0" r="1" gradientUnits="userSpaceOnUse" gradientTransform="matrix(.99524 170.6741 -266.74446 1.55544 281.789 321.535)"><stop stop-color="#E9F1FF"/><stop offset="1" stop-color="#B0CEFF" stop-opacity="0"/></radialGradient><radialGradient id="paint8_radial" cx="0" cy="0" r="1" gradientUnits="userSpaceOnUse" gradientTransform="rotate(.065 -211515.816 398442.295) scale(101.924)"><stop stop-color="#F8F8F8"/><stop offset="1" stop-color="#F8F8F8" stop-opacity="0"/></radialGradient><radialGradient id="paint18_radial" cx="0" cy="0" r="1" gradientUnits="userSpaceOnUse" gradientTransform="matrix(198.255 0 0 21.0885 294.214 496.084)"><stop stop-color="#4873C4" stop-opacity=".9"/><stop offset="1" stop-color="#fff" stop-opacity="0"/></radialGradient><radialGradient id="paint19_radial" cx="0" cy="0" r="1" gradientUnits="userSpaceOnUse" gradientTransform="matrix(190.707 0 0 21.0885 190.805 522.191)"><stop stop-color="#4873C4" stop-opacity=".9"/><stop offset="1" stop-color="#fff" stop-opacity="0"/></radialGradient><radialGradient id="paint9_radial" cx="0" cy="0" r="1" gradientUnits="userSpaceOnUse" gradientTransform="rotate(.065 -122063.1 134598.426) scale(110.224)"><stop stop-color="#F8F8F8"/><stop offset="1" stop-color="#F8F8F8" stop-opacity="0"/></radialGradient><radialGradient id="paint41_radial" cx="0" cy="0" r="1" gradientUnits="userSpaceOnUse" gradientTransform="rotate(.065 -124736.912 96749.709) scale(108.765)"><stop stop-color="#fff"/><stop offset="1" stop-color="#fff" stop-opacity="0"/></radialGradient><clipPath id="clip0"><path fill="#fff" d="M0 0h555v555H0z"/></clipPath></defs></svg>